<!DOCTYPE svg PUBLIC "-//W3C//DTD SVG 1.1//EN" "http://www.w3.org/Graphics/SVG/1.1/DTD/svg11.dtd">
<!-- Uploaded to: SVG Repo, www.svgrepo.com, Transformed by: SVG Repo Mixer Tools -->
<svg fill="#000000" width="64px" height="64px" viewBox="0 0 24 24" xmlns="http://www.w3.org/2000/svg">
<g id="SVGRepo_bgCarrier" stroke-width="0"/>
<g id="SVGRepo_tracerCarrier" stroke-linecap="round" stroke-linejoin="round"/>
<g id="SVGRepo_iconCarrier"> <g id="View_Board" data-name="View Board"> <g> <path d="M18.437,20.936H5.563a2.5,2.5,0,0,1-2.5-2.5V5.562a2.5,2.5,0,0,1,2.5-2.5H18.437a2.5,2.5,0,0,1,2.5,2.5V18.436A2.5,2.5,0,0,1,18.437,20.936ZM5.563,4.062a1.5,1.5,0,0,0-1.5,1.5V18.436a1.5,1.5,0,0,0,1.5,1.5H18.437a1.5,1.5,0,0,0,1.5-1.5V5.562a1.5,1.5,0,0,0-1.5-1.5Z"/> <path d="M12.5,14.544a.5.5,0,0,1-1,0v-8h0a.5.5,0,0,1,1,0Z"/> <path d="M16.717,12.453a.5.5,0,0,1-1,0V6.544h0a.5.5,0,0,1,1,0Z"/> <path d="M8.28,6.544a.5.5,0,0,0-1,0h0v4a.5.5,0,0,0,1,0Z"/> </g> </g> </g>
</svg>